<svg> <path d="M80.59,101.19a61.37,61.37,0,0,1-24.74,4.71A57.76,57.76,0,0,1,34.16,102,50.05,50.05,0,0,1,17.32,91.1,49.17,49.17,0,0,1,6.37,74.56a54.54,54.54,0,0,1-3.92-20.9v-.29A51.93,51.93,0,0,1,34.37,5,53.89,53.89,0,0,1,55.71.84a74.66,74.66,0,0,1,12.4.94A59.18,59.18,0,0,1,78.49,4.46a48.61,48.61,0,0,1,9,4.36,66.64,66.64,0,0,1,8.12,5.95l-14.07,17a56.41,56.41,0,0,0-5.81-4.36,38.18,38.18,0,0,0-6-3.19,35.2,35.2,0,0,0-6.75-2,41.06,41.06,0,0,0-8-.73A25.92,25.92,0,0,0,43.59,24a30.84,30.84,0,0,0-9.29,6.83,31.49,31.49,0,0,0-6.24,10,33.41,33.41,0,0,0-2.25,12.29v.29a35.73,35.73,0,0,0,2.25,12.87,30.57,30.57,0,0,0,6.39,10.26,28.88,28.88,0,0,0,9.72,6.76,31.11,31.11,0,0,0,12.41,2.4q12.48,0,21-6.14V65H55.13V45.68H99.24V89.79A74.49,74.49,0,0,1,80.59,101.19Z" style="fill:#0c1153" class="svg-drop-shadow"></path> </svg>
